<svg id="Groupe_7488" data-name="Groupe 7488" xmlns="http://www.w3.org/2000/svg" xmlns:xlink="http://www.w3.org/1999/xlink" width="220.525" height="69.876" viewBox="0 0 220.525 69.876">
  <defs>
    <clipPath id="clip-path">
      <rect id="Rectangle_9601" data-name="Rectangle 9601" width="220.525" height="69.876" fill="none"/>
    </clipPath>
  </defs>
  <g id="Groupe_6054" data-name="Groupe 6054" clip-path="url(#clip-path)">
    <path id="Tracé_97073" data-name="Tracé 97073" d="M343.289,209.205a2.046,2.046,0,0,0-.219-.037,2.124,2.124,0,0,0-.228-.012,2.015,2.015,0,0,0-.816.165,2.094,2.094,0,0,0-.663.46,2.221,2.221,0,0,0-.451.683,2.155,2.155,0,0,0,0,1.657,2.226,2.226,0,0,0,.456.688,2.073,2.073,0,0,0,1.5.63,1.876,1.876,0,0,0,.456-.058l.265.886a2.8,2.8,0,0,1-.373.075,2.925,2.925,0,0,1-.381.025,3.016,3.016,0,0,1-2.179-.9,3.132,3.132,0,0,1-.659-.982,3.108,3.108,0,0,1,0-2.373,3.172,3.172,0,0,1,.659-.99,3.1,3.1,0,0,1,.982-.675,2.954,2.954,0,0,1,1.2-.245,2.725,2.725,0,0,1,.4.029,3.249,3.249,0,0,1,.377.079Zm-.058-.936h3.761v.894h-2.767v1.657h2.428v.92h-2.428v1.64h2.883v.92h-3.877Z" transform="translate(-251.054 -153.845)" fill="#2700ee"/>
    <path id="Tracé_97074" data-name="Tracé 97074" d="M380.775,212.319a1.187,1.187,0,0,0,.187.65,1.458,1.458,0,0,0,.493.477,1.32,1.32,0,0,0,.688.182,1.394,1.394,0,0,0,.712-.182,1.429,1.429,0,0,0,.5-.477,1.192,1.192,0,0,0,.186-.65v-3.86h.945v3.877a2.117,2.117,0,0,1-1.164,1.942,2.643,2.643,0,0,1-2.357,0,2.169,2.169,0,0,1-.845-.779,2.145,2.145,0,0,1-.315-1.164v-3.877h.969Z" transform="translate(-280.645 -154.034)" fill="#2700ee"/>
    <path id="Tracé_97075" data-name="Tracé 97075" d="M409.854,208.458l1.9,4.73-.555-.116,1.764-4.614H414.1l-2.7,6.3-2.684-6.3Z" transform="translate(-302.004 -154.033)" fill="#2700ee"/>
    <path id="Tracé_97076" data-name="Tracé 97076" d="M442.407,208.458a2.946,2.946,0,0,1,.907.132,2.121,2.121,0,0,1,.7.377,1.627,1.627,0,0,1,.451.6,2.032,2.032,0,0,1,.157.829,2.445,2.445,0,0,1-.108.712,1.794,1.794,0,0,1-.352.646,1.721,1.721,0,0,1-.642.464,2.437,2.437,0,0,1-.977.174h-.878v2.1H440.7v-6.031Zm.124,3a1.266,1.266,0,0,0,.531-.1.906.906,0,0,0,.34-.257,1.013,1.013,0,0,0,.178-.335,1.158,1.158,0,0,0,.054-.336,1.229,1.229,0,0,0-.049-.327,1.079,1.079,0,0,0-.17-.344.887.887,0,0,0-.327-.269,1.167,1.167,0,0,0-.522-.1h-.895v2.071Zm1.045.588,1.541,2.444h-1.127l-1.565-2.419Z" transform="translate(-325.641 -154.033)" fill="#2700ee"/>
    <path id="Tracé_97077" data-name="Tracé 97077" d="M468.941,208.458h4v.928h-3.032v1.607h2.7v.928h-2.7v1.64h3.148v.928h-4.117Z" transform="translate(-346.509 -154.033)" fill="#2700ee"/>
    <path id="Tracé_97078" data-name="Tracé 97078" d="M498.606,209.6a4.3,4.3,0,0,0-.688-.294,2.224,2.224,0,0,0-.7-.12,1.122,1.122,0,0,0-.7.2.653.653,0,0,0-.257.547.611.611,0,0,0,.178.435,1.592,1.592,0,0,0,.46.323c.187.091.387.178.6.261a4.558,4.558,0,0,1,.538.236,2.324,2.324,0,0,1,.485.331,1.36,1.36,0,0,1,.348.5,1.835,1.835,0,0,1,.129.725,1.626,1.626,0,0,1-.235.865,1.712,1.712,0,0,1-.692.621,2.333,2.333,0,0,1-1.085.236,3.307,3.307,0,0,1-.742-.082,3.832,3.832,0,0,1-.683-.224,3.135,3.135,0,0,1-.6-.339l.431-.746a2.811,2.811,0,0,0,.456.273,3.177,3.177,0,0,0,.526.2,1.957,1.957,0,0,0,.518.074,1.6,1.6,0,0,0,.51-.087.949.949,0,0,0,.427-.278.754.754,0,0,0,.165-.513.654.654,0,0,0-.149-.435,1.419,1.419,0,0,0-.385-.315,3.624,3.624,0,0,0-.518-.244q-.274-.108-.571-.24a2.67,2.67,0,0,1-.551-.327,1.376,1.376,0,0,1-.551-1.164,1.635,1.635,0,0,1,.224-.866,1.574,1.574,0,0,1,.642-.584,2.193,2.193,0,0,1,.948-.232,3.415,3.415,0,0,1,1.09.153,3.837,3.837,0,0,1,.808.377Z" transform="translate(-365.735 -153.939)" fill="#2700ee"/>
    <path id="Tracé_97079" data-name="Tracé 97079" d="M540.125,208.459a2.728,2.728,0,0,1,1.177.232,1.7,1.7,0,0,1,.75.667,1.99,1.99,0,0,1,.26,1.04,2.406,2.406,0,0,1-.111.716,1.845,1.845,0,0,1-.352.646,1.753,1.753,0,0,1-.634.464,2.29,2.29,0,0,1-.948.178h-.878v2.088h-.969v-6.031Zm.133,3a1.172,1.172,0,0,0,.534-.108.929.929,0,0,0,.332-.269,1.1,1.1,0,0,0,.173-.344,1.152,1.152,0,0,0,.054-.323,1.168,1.168,0,0,0-.049-.323,1.147,1.147,0,0,0-.162-.336.827.827,0,0,0-.323-.265,1.221,1.221,0,0,0-.535-.1h-.895v2.071Z" transform="translate(-397.847 -154.034)" fill="#2700ee"/>
    <path id="Tracé_97080" data-name="Tracé 97080" d="M563.362,211.293a2.96,2.96,0,0,1,.24-1.18,3.209,3.209,0,0,1,.663-.99,3.112,3.112,0,0,1,.978-.675,3.041,3.041,0,0,1,2.39,0,3.192,3.192,0,0,1,.99.675,3.159,3.159,0,0,1,.672.99,3.054,3.054,0,0,1,0,2.373,3.08,3.08,0,0,1-.676.982,3.167,3.167,0,0,1-.99.662,3.132,3.132,0,0,1-2.386,0A3.076,3.076,0,0,1,563.6,212.5a3.021,3.021,0,0,1-.24-1.205m.994-.008a2.188,2.188,0,0,0,.162.845,2.114,2.114,0,0,0,1.126,1.143,2.059,2.059,0,0,0,.824.166,2.007,2.007,0,0,0,.817-.166,1.983,1.983,0,0,0,.654-.46,2.242,2.242,0,0,0,.439-.683,2.247,2.247,0,0,0,0-1.682,2.316,2.316,0,0,0-.448-.687,2,2,0,0,0-.662-.464,2.033,2.033,0,0,0-.821-.166,2,2,0,0,0-.82.17,2.127,2.127,0,0,0-.667.464,2.09,2.09,0,0,0-.443.688,2.218,2.218,0,0,0-.157.833" transform="translate(-416.278 -153.845)" fill="#2700ee"/>
    <path id="Tracé_97081" data-name="Tracé 97081" d="M604.207,214.118l-4.631-4.49.29.116.016,4.159H598.9v-6.238h.049l4.548,4.49-.215-.067-.017-4.216h.961v6.246Z" transform="translate(-442.541 -153.447)" fill="#2700ee"/>
    <path id="Tracé_97082" data-name="Tracé 97082" d="M631.011,208.458h4.035v.928h-1.558v5.1h-.961v-5.1h-1.517Z" transform="translate(-466.265 -154.033)" fill="#2700ee"/>
    <rect id="Rectangle_9596" data-name="Rectangle 9596" width="0.969" height="6.031" transform="translate(171.831 54.425)" fill="#2700ee"/>
    <path id="Tracé_97083" data-name="Tracé 97083" d="M675.183,208.458h3.662v.928h-2.692v1.7H678.5v.928h-2.352v2.477h-.969Z" transform="translate(-498.904 -154.033)" fill="#2700ee"/>
    <rect id="Rectangle_9597" data-name="Rectangle 9597" width="0.969" height="6.031" transform="translate(183.014 54.425)" fill="#2700ee"/>
    <path id="Tracé_97084" data-name="Tracé 97084" d="M721.435,213.829a2.119,2.119,0,0,1-.389.228,3.44,3.44,0,0,1-.625.224,2.892,2.892,0,0,1-.8.087,3.216,3.216,0,0,1-1.264-.252,2.855,2.855,0,0,1-.952-.663,2.954,2.954,0,0,1-.605-.961,3.179,3.179,0,0,1-.211-1.164,3.548,3.548,0,0,1,.215-1.247,2.918,2.918,0,0,1,.613-.994,2.8,2.8,0,0,1,.945-.65,3.047,3.047,0,0,1,1.2-.232,3.148,3.148,0,0,1,1.015.153,3.43,3.43,0,0,1,.759.352l-.381.9a2.973,2.973,0,0,0-.58-.327,1.936,1.936,0,0,0-.788-.153,1.829,1.829,0,0,0-.758.162,1.994,1.994,0,0,0-.638.456,2.226,2.226,0,0,0-.6,1.528,2.538,2.538,0,0,0,.145.866,2,2,0,0,0,.414.692,1.852,1.852,0,0,0,.642.447,2.384,2.384,0,0,0,1.669.012,2.136,2.136,0,0,0,.568-.328Z" transform="translate(-529.5 -153.845)" fill="#2700ee"/>
    <path id="Tracé_97085" data-name="Tracé 97085" d="M744.61,213.786l2.676-6.28h.057l2.668,6.28h-1.1l-1.889-4.772.7-.456-2.154,5.228Zm1.69-2.237h2.055l.331.812H746Z" transform="translate(-550.205 -153.33)" fill="#2700ee"/>
    <path id="Tracé_97086" data-name="Tracé 97086" d="M776.214,208.458h.969v5.1h2.973v.928h-3.943Z" transform="translate(-573.557 -154.033)" fill="#2700ee"/>
    <path id="Tracé_97087" data-name="Tracé 97087" d="M803.187,208.458h4v.928h-3.032v1.607h2.7v.928h-2.7v1.64H807.3v.928h-4.117Z" transform="translate(-593.488 -154.033)" fill="#2700ee"/>
    <path id="Tracé_97088" data-name="Tracé 97088" d="M832.848,209.6a4.3,4.3,0,0,0-.688-.294,2.226,2.226,0,0,0-.7-.12,1.123,1.123,0,0,0-.7.2.652.652,0,0,0-.257.547.611.611,0,0,0,.178.435,1.587,1.587,0,0,0,.46.323c.187.091.386.178.6.261a4.585,4.585,0,0,1,.538.236,2.338,2.338,0,0,1,.484.331,1.361,1.361,0,0,1,.348.5,1.834,1.834,0,0,1,.129.725,1.626,1.626,0,0,1-.235.865,1.715,1.715,0,0,1-.692.621,2.334,2.334,0,0,1-1.085.236,3.309,3.309,0,0,1-.742-.082,3.833,3.833,0,0,1-.683-.224,3.138,3.138,0,0,1-.6-.339l.431-.746a2.8,2.8,0,0,0,.456.273,3.165,3.165,0,0,0,.526.2,1.957,1.957,0,0,0,.518.074,1.6,1.6,0,0,0,.51-.087.948.948,0,0,0,.427-.278.753.753,0,0,0,.166-.513.654.654,0,0,0-.149-.435,1.423,1.423,0,0,0-.385-.315,3.619,3.619,0,0,0-.518-.244q-.274-.108-.571-.24a2.671,2.671,0,0,1-.551-.327,1.377,1.377,0,0,1-.551-1.164,1.634,1.634,0,0,1,.224-.866,1.574,1.574,0,0,1,.642-.584,2.191,2.191,0,0,1,.948-.232,3.411,3.411,0,0,1,1.089.153,3.833,3.833,0,0,1,.808.377Z" transform="translate(-612.712 -153.939)" fill="#2700ee"/>
    <path id="Tracé_97089" data-name="Tracé 97089" d="M340.9,249.136v-6.247h.008l3.247,4.6-.413-.091,3.231-4.507h.016v6.247h-.961v-4.068l.059.488-2.179,3.091h-.016l-2.22-3.091.165-.447v4.026Z" transform="translate(-251.899 -179.475)" fill="#2700ee"/>
    <rect id="Rectangle_9598" data-name="Rectangle 9598" width="0.969" height="6.031" transform="translate(97.993 63.63)" fill="#2700ee"/>
    <path id="Tracé_97090" data-name="Tracé 97090" d="M391.952,244.856a4.281,4.281,0,0,0-.688-.294,2.226,2.226,0,0,0-.7-.12,1.123,1.123,0,0,0-.7.2.652.652,0,0,0-.257.547.611.611,0,0,0,.178.435,1.588,1.588,0,0,0,.46.323c.187.091.387.178.6.261a4.55,4.55,0,0,1,.538.236,2.325,2.325,0,0,1,.485.331,1.359,1.359,0,0,1,.348.5,1.836,1.836,0,0,1,.129.725,1.626,1.626,0,0,1-.236.865,1.712,1.712,0,0,1-.692.621,2.332,2.332,0,0,1-1.085.236,3.305,3.305,0,0,1-.742-.083,3.835,3.835,0,0,1-.683-.224,3.139,3.139,0,0,1-.6-.339l.431-.746a2.815,2.815,0,0,0,.456.273,3.172,3.172,0,0,0,.526.2,1.955,1.955,0,0,0,.518.074,1.6,1.6,0,0,0,.51-.087.947.947,0,0,0,.427-.278.753.753,0,0,0,.166-.513.654.654,0,0,0-.149-.435,1.414,1.414,0,0,0-.385-.315,3.609,3.609,0,0,0-.518-.244q-.274-.108-.572-.24a2.669,2.669,0,0,1-.551-.327,1.376,1.376,0,0,1-.551-1.164,1.636,1.636,0,0,1,.224-.866,1.574,1.574,0,0,1,.642-.584,2.193,2.193,0,0,1,.948-.232,3.413,3.413,0,0,1,1.09.153,3.834,3.834,0,0,1,.808.377Z" transform="translate(-286.927 -179.991)" fill="#2700ee"/>
    <path id="Tracé_97091" data-name="Tracé 97091" d="M415.179,244.856a4.273,4.273,0,0,0-.688-.294,2.226,2.226,0,0,0-.7-.12,1.122,1.122,0,0,0-.7.2.653.653,0,0,0-.257.547.611.611,0,0,0,.178.435,1.589,1.589,0,0,0,.46.323c.187.091.387.178.6.261a4.558,4.558,0,0,1,.538.236,2.325,2.325,0,0,1,.485.331,1.363,1.363,0,0,1,.348.5,1.842,1.842,0,0,1,.128.725,1.626,1.626,0,0,1-.236.865,1.711,1.711,0,0,1-.692.621,2.332,2.332,0,0,1-1.085.236,3.306,3.306,0,0,1-.742-.083,3.833,3.833,0,0,1-.683-.224,3.136,3.136,0,0,1-.6-.339l.431-.746a2.814,2.814,0,0,0,.456.273,3.178,3.178,0,0,0,.526.2,1.955,1.955,0,0,0,.518.074,1.6,1.6,0,0,0,.51-.087.948.948,0,0,0,.427-.278.754.754,0,0,0,.165-.513.654.654,0,0,0-.149-.435,1.416,1.416,0,0,0-.384-.315,3.621,3.621,0,0,0-.518-.244q-.274-.108-.571-.24a2.668,2.668,0,0,1-.551-.327,1.376,1.376,0,0,1-.551-1.164,1.635,1.635,0,0,1,.224-.866,1.574,1.574,0,0,1,.642-.584,2.194,2.194,0,0,1,.949-.232,3.413,3.413,0,0,1,1.089.153,3.833,3.833,0,0,1,.808.377Z" transform="translate(-304.089 -179.991)" fill="#2700ee"/>
    <rect id="Rectangle_9599" data-name="Rectangle 9599" width="0.969" height="6.031" transform="translate(113.991 63.63)" fill="#2700ee"/>
    <path id="Tracé_97092" data-name="Tracé 97092" d="M449.994,246.551a2.959,2.959,0,0,1,.24-1.18,3.211,3.211,0,0,1,.663-.99,3.114,3.114,0,0,1,.978-.675,3.042,3.042,0,0,1,2.39,0,3.2,3.2,0,0,1,1.661,1.665,3.055,3.055,0,0,1,0,2.373,3.082,3.082,0,0,1-.676.982,3.168,3.168,0,0,1-.99.662,3.133,3.133,0,0,1-2.386,0,3.1,3.1,0,0,1-.978-.654,3.067,3.067,0,0,1-.663-.978,3.02,3.02,0,0,1-.24-1.205m.994-.008a2.181,2.181,0,0,0,.162.845,2.114,2.114,0,0,0,1.126,1.143,2.059,2.059,0,0,0,.824.166,2.006,2.006,0,0,0,.816-.166,1.981,1.981,0,0,0,.654-.46,2.235,2.235,0,0,0,.439-.683,2.244,2.244,0,0,0,0-1.682,2.314,2.314,0,0,0-.448-.687,2.005,2.005,0,0,0-.663-.464,2.031,2.031,0,0,0-.82-.166,2,2,0,0,0-.82.17,2.125,2.125,0,0,0-.667.464,2.093,2.093,0,0,0-.443.688,2.216,2.216,0,0,0-.157.833" transform="translate(-332.508 -179.897)" fill="#2700ee"/>
    <path id="Tracé_97093" data-name="Tracé 97093" d="M488.615,249.375l-4.631-4.49.29.116.016,4.159h-.977v-6.238h.049l4.548,4.49-.215-.067-.017-4.216h.961v6.246Z" transform="translate(-357.128 -179.499)" fill="#2700ee"/>
    <path id="Tracé_97094" data-name="Tracé 97094" d="M520.157,249.375l-4.631-4.49.29.116.016,4.159h-.977v-6.238h.049l4.548,4.49-.215-.067-.017-4.216h.961v6.246Z" transform="translate(-380.436 -179.499)" fill="#2700ee"/>
    <path id="Tracé_97095" data-name="Tracé 97095" d="M543.949,249.043l2.676-6.28h.057l2.668,6.28h-1.1l-1.889-4.772.7-.456-2.154,5.228Zm1.69-2.237h2.055l.331.812H545.34Z" transform="translate(-401.933 -179.382)" fill="#2700ee"/>
    <rect id="Rectangle_9600" data-name="Rectangle 9600" width="0.969" height="6.031" transform="translate(149.688 63.63)" fill="#2700ee"/>
    <path id="Tracé_97096" data-name="Tracé 97096" d="M589.858,243.715a2.947,2.947,0,0,1,.907.132,2.122,2.122,0,0,1,.7.377,1.627,1.627,0,0,1,.451.6,2.032,2.032,0,0,1,.157.829,2.441,2.441,0,0,1-.108.712,1.8,1.8,0,0,1-.352.646,1.723,1.723,0,0,1-.642.464,2.436,2.436,0,0,1-.977.174h-.878v2.1h-.969v-6.031Zm.124,3a1.267,1.267,0,0,0,.531-.1.908.908,0,0,0,.34-.257,1.007,1.007,0,0,0,.178-.335,1.163,1.163,0,0,0,.054-.336,1.223,1.223,0,0,0-.049-.327,1.075,1.075,0,0,0-.17-.344.887.887,0,0,0-.327-.269,1.168,1.168,0,0,0-.522-.1h-.894v2.071Zm1.045.588,1.541,2.444H591.44l-1.565-2.419Z" transform="translate(-434.595 -180.085)" fill="#2700ee"/>
    <path id="Tracé_97097" data-name="Tracé 97097" d="M614.171,243.716h4v.928H615.14v1.607h2.7v.928h-2.7v1.64h3.148v.928h-4.117Z" transform="translate(-453.822 -180.086)" fill="#2700ee"/>
    <path id="Tracé_97098" data-name="Tracé 97098" d="M641.615,244.856a4.28,4.28,0,0,0-.687-.294,2.226,2.226,0,0,0-.7-.12,1.123,1.123,0,0,0-.7.2.652.652,0,0,0-.257.547.611.611,0,0,0,.178.435,1.588,1.588,0,0,0,.46.323c.187.091.387.178.6.261a4.567,4.567,0,0,1,.538.236,2.324,2.324,0,0,1,.485.331,1.362,1.362,0,0,1,.348.5A1.837,1.837,0,0,1,642,248a1.626,1.626,0,0,1-.236.865,1.712,1.712,0,0,1-.692.621,2.333,2.333,0,0,1-1.085.236,3.306,3.306,0,0,1-.742-.083,3.838,3.838,0,0,1-.683-.224,3.14,3.14,0,0,1-.6-.339l.431-.746a2.81,2.81,0,0,0,.456.273,3.17,3.17,0,0,0,.526.2,1.953,1.953,0,0,0,.518.074,1.6,1.6,0,0,0,.51-.087.948.948,0,0,0,.427-.278A.754.754,0,0,0,641,248a.654.654,0,0,0-.149-.435,1.418,1.418,0,0,0-.384-.315,3.622,3.622,0,0,0-.518-.244q-.274-.108-.571-.24a2.663,2.663,0,0,1-.551-.327,1.375,1.375,0,0,1-.551-1.164,1.635,1.635,0,0,1,.224-.866,1.573,1.573,0,0,1,.642-.584,2.194,2.194,0,0,1,.949-.232,3.411,3.411,0,0,1,1.089.153,3.835,3.835,0,0,1,.808.377Z" transform="translate(-471.407 -179.991)" fill="#2700ee"/>
    <path id="Tracé_97099" data-name="Tracé 97099" d="M693.745,243.716h3.661v.928h-2.692v1.7h2.352v.928h-2.352v2.477h-.969Z" transform="translate(-512.62 -180.086)" fill="#2700ee"/>
    <path id="Tracé_97100" data-name="Tracé 97100" d="M719.026,243.715a2.947,2.947,0,0,1,.907.132,2.119,2.119,0,0,1,.7.377,1.628,1.628,0,0,1,.451.6,2.032,2.032,0,0,1,.157.829,2.442,2.442,0,0,1-.108.712,1.8,1.8,0,0,1-.352.646,1.721,1.721,0,0,1-.642.464,2.437,2.437,0,0,1-.977.174h-.878v2.1h-.969v-6.031Zm.124,3a1.265,1.265,0,0,0,.531-.1.908.908,0,0,0,.34-.257,1.008,1.008,0,0,0,.178-.335,1.159,1.159,0,0,0,.054-.336,1.228,1.228,0,0,0-.049-.327,1.079,1.079,0,0,0-.17-.344.887.887,0,0,0-.327-.269,1.165,1.165,0,0,0-.522-.1h-.895v2.071Zm1.045.588,1.541,2.444h-1.127l-1.565-2.419Z" transform="translate(-530.04 -180.085)" fill="#2700ee"/>
    <path id="Tracé_97101" data-name="Tracé 97101" d="M740.894,249.043l2.676-6.28h.058l2.668,6.28h-1.1L743.3,244.27l.7-.456-2.154,5.228Zm1.69-2.237h2.055l.331.812h-2.684Z" transform="translate(-547.459 -179.382)" fill="#2700ee"/>
    <path id="Tracé_97102" data-name="Tracé 97102" d="M775.583,249.375l-4.631-4.49.29.116.016,4.159h-.977v-6.238h.049l4.548,4.49-.215-.067-.017-4.216h.961v6.246Z" transform="translate(-569.174 -179.499)" fill="#2700ee"/>
    <path id="Tracé_97103" data-name="Tracé 97103" d="M805.237,249.086a2.133,2.133,0,0,1-.389.228,3.45,3.45,0,0,1-.626.224,2.887,2.887,0,0,1-.8.087,3.218,3.218,0,0,1-1.264-.252,2.858,2.858,0,0,1-.952-.663,2.955,2.955,0,0,1-.6-.961,3.175,3.175,0,0,1-.211-1.164,3.552,3.552,0,0,1,.215-1.247,2.915,2.915,0,0,1,.613-.994,2.805,2.805,0,0,1,.945-.65,3.047,3.047,0,0,1,1.2-.232,3.148,3.148,0,0,1,1.015.153,3.428,3.428,0,0,1,.759.352l-.381.9a2.988,2.988,0,0,0-.58-.327,1.938,1.938,0,0,0-.788-.153,1.83,1.83,0,0,0-.758.162,1.993,1.993,0,0,0-.638.456,2.211,2.211,0,0,0-.439.687,2.187,2.187,0,0,0-.162.841,2.532,2.532,0,0,0,.145.865,2,2,0,0,0,.414.692,1.852,1.852,0,0,0,.642.447,2.385,2.385,0,0,0,1.669.013,2.136,2.136,0,0,0,.568-.328Z" transform="translate(-591.422 -179.897)" fill="#2700ee"/>
    <path id="Tracé_97104" data-name="Tracé 97104" d="M828.635,243.716h4v.928H829.6v1.607h2.7v.928h-2.7v1.64h3.034v.928h-4Z" transform="translate(-612.292 -180.086)" fill="#2700ee"/>
    <path id="Tracé_97105" data-name="Tracé 97105" d="M277.737,249.83c-2.552-.088-2.247,4.346-2.247,4.346l4.65-.1s.149-4.154-2.4-4.244" transform="translate(-203.556 -184.603)" fill="#2700ee"/>
    <path id="Tracé_97106" data-name="Tracé 97106" d="M2.406,249.83c-2.552.09-2.4,4.244-2.4,4.244l4.65.1s.3-4.434-2.247-4.346" transform="translate(-0.001 -184.603)" fill="#2700ee"/>
    <path id="Tracé_97107" data-name="Tracé 97107" d="M12.54,216.82a6.108,6.108,0,0,1-.668-1.6,7.179,7.179,0,0,0-5.467-.452c-2.485.815-2.414,4.152-2.327,5.209a1.843,1.843,0,1,0,.216,0,6.509,6.509,0,0,1,1.235-1.511,3.17,3.17,0,0,1,3.207-.183c.239.107.854.435,1.588.837a5.569,5.569,0,0,1,2.217-2.3" transform="translate(-1.702 -158.438)" fill="#2700ee"/>
    <path id="Tracé_97108" data-name="Tracé 97108" d="M220.626,99.075l1.439-1.207-2.612-3.113-10.559,8.86,2.612,3.112,1.7-1.43,1.125,1.341-1.7,1.43,1.987,2.368,4.792-4.021-1.987-2.368-1.441,1.21-1.125-1.341,1.441-1.21-1.315-1.567,1.24-1.041,1.314,1.567,1.442-1.21,1.125,1.341-1.441,1.209,1.987,2.368,4.527-3.8-1.987-2.368-1.439,1.208Z" transform="translate(-154.355 -70.016)" fill="#2700ee"/>
    <path id="Tracé_97109" data-name="Tracé 97109" d="M260.619,219.979a1.856,1.856,0,1,0,.216,0c.088-1.058.159-4.395-2.326-5.21a7.125,7.125,0,0,0-5.352.4,6.12,6.12,0,0,1-.591,1.881,5.527,5.527,0,0,1,2.258,1.948c.627-.341,1.141-.614,1.354-.709a3.169,3.169,0,0,1,3.207.183,6.509,6.509,0,0,1,1.235,1.511" transform="translate(-186.625 -158.436)" fill="#2700ee"/>
    <path id="Tracé_97110" data-name="Tracé 97110" d="M30,103.087l-1.431-1.222,1.136-1.332,1.431,1.222L32.46,100.2l1.231,1.051-1.328,1.556,1.432,1.222-1.136,1.331-1.431-1.222-2.007,2.351,4.758,4.061,2.007-2.351-1.692-1.445,1.136-1.331,1.692,1.444,2.638-3.09L29.275,94.829l-2.638,3.09,1.428,1.219L26.93,100.47,25.5,99.251,23.494,101.6l4.495,3.836Z" transform="translate(-17.36 -70.071)" fill="#2700ee"/>
    <path id="Tracé_97111" data-name="Tracé 97111" d="M126.7,15.14c-1.226-4.46-3.258-8.087-8.718-9.53a4.715,4.715,0,0,1-.476-.2.2.2,0,0,1-.127-.187v-1.4a.2.2,0,0,1,.2-.2l1.224-.008a.2.2,0,0,0,.2-.2V1.681a.2.2,0,0,0-.2-.2h-1.221a.2.2,0,0,1-.2-.2V.2a.2.2,0,0,0-.2-.2H115.51a.2.2,0,0,0-.2.2V1.279a.2.2,0,0,1-.2.2h-1.14a.2.2,0,0,0-.2.2v1.74a.2.2,0,0,0,.2.2h1.153a.2.2,0,0,1,.2.2V5.23a.2.2,0,0,1-.121.185c-.113.049-.268.144-.358.168a11.88,11.88,0,0,0-8.9,9.592A52.552,52.552,0,0,1,126.7,15.14" transform="translate(-78.284 0)" fill="#2700ee"/>
    <path id="Tracé_97112" data-name="Tracé 97112" d="M128.779,94.608c.619-1.544,1.2-3.1,1.854-4.807a50.538,50.538,0,0,0-16.6,0c.642,1.7,1.213,3.248,1.819,4.777a.653.653,0,0,0,.509.284q5.947.025,11.894,0a.668.668,0,0,0,.524-.258" transform="translate(-84.262 -65.849)" fill="#2700ee"/>
    <path id="Tracé_97113" data-name="Tracé 97113" d="M126.968,65.609a49.417,49.417,0,0,0-10.687-1c-3.3.154-6.591.653-9.887.981l.781,3.32a61.671,61.671,0,0,1,19.125.016Z" transform="translate(-78.616 -47.72)" fill="#2700ee"/>
    <path id="Tracé_97114" data-name="Tracé 97114" d="M128.488,120.481l2.038,2.081L132,117.449c-.475-.042-2.287-.075-2.734-.049Z" transform="translate(-94.942 -86.742)" fill="#2700ee"/>
    <path id="Tracé_97115" data-name="Tracé 97115" d="M149.429,117.449l1.54,5.113,2.038-2.081-.845-3.081c-.447-.027-2.258.007-2.734.049" transform="translate(-110.416 -86.742)" fill="#2700ee"/>
    <path id="Tracé_97116" data-name="Tracé 97116" d="M110.406,194.627l-2.87,2.37a7.879,7.879,0,0,1,.476,4.593c-.627,1.882-1.229,3.056-3.067,3.955a5.641,5.641,0,0,1-.784.307,2.683,2.683,0,0,1-.034,1.9,3.812,3.812,0,0,1-.914,1.521,9.564,9.564,0,0,0,7.318-3.434c2.45-2.958,2.07-6.712,0-10.964l-.123-.25" transform="translate(-76.264 -143.813)" fill="#2700ee"/>
    <path id="Tracé_97117" data-name="Tracé 97117" d="M164.157,205.731a5.348,5.348,0,0,1-.822-.275c-1.875-.82-2.44-2.073-3.067-3.955a7.909,7.909,0,0,1,.487-4.627l-2.866-2.366-.138.281c-2.07,4.252-2.45,8.006,0,10.964a10.149,10.149,0,0,0,6.989,3.457,4.406,4.406,0,0,1-.239-.578,6.647,6.647,0,0,1-.342-2.9" transform="translate(-115.309 -143.725)" fill="#2700ee"/>
    <path id="Tracé_97118" data-name="Tracé 97118" d="M89.212,108.112a4.913,4.913,0,0,0-1.583-.9,4.933,4.933,0,1,0-8.741-4.048L64.816,91.149l1.1-.928a6.6,6.6,0,0,1,2.6-4.325,4.477,4.477,0,0,1,3.232-.6l16.77-14.147a2.417,2.417,0,0,0,2.06-3.143,1.387,1.387,0,1,0-1.179-1.4,2.416,2.416,0,0,0-3.453,1.483L61.73,88.515,37.817,68.128a2.417,2.417,0,0,0-3.44-1.511,1.387,1.387,0,1,0-1.191,1.394,2.416,2.416,0,0,0,2.033,3.16L52.063,85.531a4.553,4.553,0,0,1,2.755.621,6.1,6.1,0,0,1,2.6,3.941l1.209,1.031L44.4,103.056a4.934,4.934,0,1,0-8.775,3.974,4.936,4.936,0,1,0,5.909,7.042,4.933,4.933,0,1,0,5.437-7.951L61.708,93.757,76.291,106.2a4.934,4.934,0,1,0,5.37,8,4.935,4.935,0,1,0,7.551-6.088m-50.521,5.354a2.3,2.3,0,1,1,.284-3.245,2.3,2.3,0,0,1-.284,3.245m2.361-7.63a2.3,2.3,0,1,1,.284-3.245,2.3,2.3,0,0,1-.284,3.245m5.637,6.693a2.3,2.3,0,1,1,.284-3.245,2.3,2.3,0,0,1-.284,3.245m33.173-.22a2.327,2.327,0,1,1-.259-3.28,2.327,2.327,0,0,1,.259,3.28m2.338-6.323a2.326,2.326,0,1,1,3.28-.259,2.326,2.326,0,0,1-3.28.259m5.577,7.39a2.327,2.327,0,1,1-.259-3.28,2.326,2.326,0,0,1,.259,3.28" transform="translate(-23.356 -48.219)" fill="#2700ee"/>
    <path id="Tracé_97119" data-name="Tracé 97119" d="M118.492,155.722c.226.432.2.384.374.7l1.947-.471s-.415-1.15-.793-1.94c-1.645-.841-1.917.76-1.528,1.706" transform="translate(-87.44 -113.63)" fill="#2700ee"/>
    <path id="Tracé_97120" data-name="Tracé 97120" d="M102.179,147.158c-1.847,1.065-2.105,2.191-1.942,4.161s1.194,2.96,2.414,4.389l3.038-2.407c-.385-.749-.634-1.23-.634-1.23l.006,0-.6-1.135s-.941-1.676-.139-2.687a1.5,1.5,0,0,1,2.091,0,2.015,2.015,0,0,0-.3-.418,3.216,3.216,0,0,0-3.931-.668" transform="translate(-74.036 -108.423)" fill="#2700ee"/>
    <path id="Tracé_97121" data-name="Tracé 97121" d="M167.4,153.245c-.378.79-.793,1.94-.793,1.94l1.947.471c.177-.321.148-.273.374-.7.389-.946.117-2.548-1.528-1.706" transform="translate(-123.106 -113.061)" fill="#2700ee"/>
    <path id="Tracé_97122" data-name="Tracé 97122" d="M176.592,150.548c.163-1.97-.095-3.1-1.942-4.161a3.216,3.216,0,0,0-3.931.668,2.016,2.016,0,0,0-.3.417,1.5,1.5,0,0,1,2.091,0c.8,1.012-.139,2.687-.139,2.687l-.6,1.135.006,0s-.249.481-.634,1.23l3.038,2.407c1.22-1.428,2.251-2.419,2.414-4.389" transform="translate(-125.923 -107.854)" fill="#2700ee"/>
    <path id="Tracé_97123" data-name="Tracé 97123" d="M365.851,21.37a23.361,23.361,0,0,0-7.256-4.929,22.522,22.522,0,0,0-17.517,0,23.159,23.159,0,0,0-12.067,12.192,22.116,22.116,0,0,0-1.75,8.708,22.192,22.192,0,0,0,6.623,16.089,22.377,22.377,0,0,0,16,6.529,22.255,22.255,0,0,0,8.767-1.747,22.872,22.872,0,0,0,12.133-12.041,22.5,22.5,0,0,0,0-17.543,23.334,23.334,0,0,0-4.931-7.258m.173,16.034a16.452,16.452,0,0,1-1.255,6.4,16.82,16.82,0,0,1-3.444,5.242,15.807,15.807,0,0,1-17.679,3.527,16.7,16.7,0,0,1-5.15-3.562,16.215,16.215,0,0,1-3.47-5.238,16.676,16.676,0,0,1-1.226-6.435,17.206,17.206,0,0,1,1.2-6.385,16.056,16.056,0,0,1,8.522-8.881,15.555,15.555,0,0,1,6.358-1.314,15.664,15.664,0,0,1,11.439,4.868,17.526,17.526,0,0,1,3.451,5.31,16.62,16.62,0,0,1,1.255,6.466" transform="translate(-241.819 -10.838)" fill="#2700ee"/>
    <path id="Tracé_97124" data-name="Tracé 97124" d="M699.261,18.4H698.25V61.276H704.4V35.365L717.356,52.91l12.783-17.318V61.276h6.155V18.4h-1.18l-17.76,24.285Z" transform="translate(-515.948 -13.594)" fill="#2700ee"/>
    <path id="Tracé_97125" data-name="Tracé 97125" d="M552.679,20.15H530.161V62.572h6.308V48.254h16.21a14.052,14.052,0,0,0,0-28.1m-16.21,6.216h16.21a7.834,7.834,0,0,1,0,15.669h-16.21Z" transform="translate(-391.745 -14.889)" fill="#2700ee"/>
  </g>
</svg>
